<svg xmlns="http://www.w3.org/2000/svg" viewBox="0 0 800 520" role="img" aria-label="Mobile product preview">
  <defs>
    <linearGradient id="bg2" x1="0" y1="0" x2="1" y2="1">
      <stop offset="0" stop-color="#20160f"/>
      <stop offset="1" stop-color="#08080d"/>
    </linearGradient>
    <linearGradient id="a2" x1="0" y1="0" x2="1" y2="1">
      <stop offset="0" stop-color="#ffd7a2"/>
      <stop offset="1" stop-color="#ff8db1"/>
    </linearGradient>
  </defs>
  <rect width="800" height="520" fill="url(#bg2)"/>
  <rect x="220" y="44" width="210" height="432" rx="44" fill="#0c0c12" stroke="rgba(255,255,255,.14)"/>
  <rect x="252" y="78" width="146" height="356" rx="26" fill="rgba(255,255,255,.04)" stroke="rgba(255,255,255,.1)"/>
  <rect x="420" y="90" width="170" height="366" rx="38" fill="#0c0c12" stroke="rgba(255,255,255,.12)" transform="rotate(8 505 273)"/>
  <rect x="446" y="128" width="118" height="278" rx="24" fill="rgba(255,255,255,.04)" stroke="rgba(255,255,255,.1)" transform="rotate(8 505 273)"/>
  <rect x="274" y="108" width="102" height="102" rx="24" fill="url(#a2)"/>
  <rect x="274" y="236" width="96" height="12" rx="6" fill="#fff" opacity=".85"/>
  <rect x="274" y="258" width="112" height="10" rx="5" fill="#fff" opacity=".22"/>
  <rect x="274" y="278" width="80" height="10" rx="5" fill="#fff" opacity=".14"/>
  <path d="M112 392C186 336 274 316 364 334C438 350 520 332 680 248" fill="none" stroke="url(#a2)" stroke-width="4" stroke-linecap="round"/>
</svg>
